<?xml version="1.0" encoding="iso-8859-1"?>
<!-- Generator: Adobe Illustrator 21.0.0, SVG Export Plug-In . SVG Version: 6.00 Build 0)  -->
<svg xmlns="http://www.w3.org/2000/svg" xmlns:xlink="http://www.w3.org/1999/xlink" version="1.1" id="Capa_1" x="0px" y="0px" viewBox="0 0 512 512" style="enable-background:new 0 0 512 512;" xml:space="preserve" width="512" height="512">
<g>
	<polygon style="fill-rule:evenodd;clip-rule:evenodd;fill:#EDF3F6;" points="399,110 308.84,19.5 122.604,19.5 30.458,112.316  "/>
	<polygon style="fill-rule:evenodd;clip-rule:evenodd;fill:#E1EDF0;" points="255.953,110.899 399,110 308.84,19.5 255.953,19.5     "/>
	<path style="fill:#E30058;" d="M430.997,93.5h-27.261L319.467,8.914C316.651,6.088,312.828,4.5,308.84,4.5H122.604   c-3.997,0-7.829,1.595-10.645,4.432l-90.701,91.361C8.507,108.24,0,122.375,0,138.464v54.072C0,217.329,20.188,237.5,45.003,237.5   H497c8.284,0,15-6.716,15-15v-47.997C512,129.838,475.662,93.5,430.997,93.5z M361.389,93.5h-143.89v-59h85.111L361.389,93.5z    M128.849,34.5h58.65v59H70.275L128.849,34.5z"/>
	<path style="fill:#C30048;" d="M430.997,93.5h-27.261L319.467,8.914C316.651,6.088,312.828,4.5,308.84,4.5h-52.887v30h46.657   l58.778,59H255.953v144H497c8.284,0,15-6.716,15-15v-47.997C512,129.838,475.662,93.5,430.997,93.5z"/>
	<g>
		<path style="fill:#E1EBF0;" d="M392.211,474.502c-2.545,0-5.124-0.648-7.486-2.012L112.192,315.144    c-7.174-4.142-9.632-13.316-5.49-20.49c4.141-7.174,13.315-9.633,20.49-5.49L399.725,446.51c7.175,4.142,9.633,13.316,5.49,20.49    C402.437,471.812,397.395,474.502,392.211,474.502z"/>
	</g>
	<g>
		<path style="fill:#07485E;" d="M102.081,285.07C70.055,285.07,44,259.015,44,226.989c0-32.025,26.055-58.08,58.081-58.08    s58.081,26.055,58.081,58.08C160.161,259.015,134.106,285.07,102.081,285.07z"/>
	</g>
	<g>
		<path style="fill:#03232E;" d="M401.58,285.07c-32.025,0-58.08-26.055-58.08-58.081c0-32.025,26.055-58.08,58.08-58.08    c32.026,0,58.081,26.055,58.081,58.08C459.661,259.015,433.606,285.07,401.58,285.07z"/>
	</g>
	<g>
		<path style="fill:#CDE1E6;" d="M119.707,474.502c-5.185,0-10.226-2.69-13.004-7.502c-4.142-7.174-1.684-16.348,5.49-20.49    l272.532-157.346c7.175-4.142,16.348-1.685,20.49,5.49c4.143,7.174,1.685,16.348-5.49,20.49L127.192,472.49    C124.831,473.854,122.251,474.502,119.707,474.502z"/>
	</g>
	<g>
		<path style="fill:#09607D;" d="M477.959,314.833h-444c-8.284,0-15-6.716-15-15s6.716-15,15-15h444c8.284,0,15,6.716,15,15    S486.243,314.833,477.959,314.833z"/>
	</g>
	<g>
		<path style="fill:#09607D;" d="M478,507.5H33.917c-8.284,0-15-6.716-15-15v-30c0-8.284,6.716-15,15-15H478c8.284,0,15,6.716,15,15    v30C493,500.784,486.284,507.5,478,507.5z"/>
	</g>
	<g>
		<path style="fill:#E1EBF0;" d="M102.081,256.989c-16.542,0-30-13.458-30-30c0-16.542,13.458-30,30-30s30,13.458,30,30    C132.081,243.531,118.623,256.989,102.081,256.989z"/>
	</g>
	<g>
		<path style="fill:#CDE1E6;" d="M401.581,256.989c-16.542,0-30-13.458-30-30c0-16.542,13.458-30,30-30s30,13.458,30,30    C431.581,243.531,418.123,256.989,401.581,256.989z"/>
	</g>
	<path style="fill:#9BB9C3;" d="M405.215,294.654c-4.143-7.175-13.315-9.632-20.49-5.49L255.953,363.51v34.641l143.772-83.006   C406.899,311.002,409.357,301.828,405.215,294.654z"/>
	<path style="fill:#B4D2D7;" d="M399.725,446.51l-143.772-83.006v34.641l128.772,74.346c2.362,1.364,4.941,2.012,7.486,2.012   c5.184,0,10.226-2.69,13.004-7.502C409.357,459.826,406.899,450.652,399.725,446.51z"/>
	<path style="fill:#07485E;" d="M477.959,284.833H255.953v30h222.006c8.284,0,15-6.716,15-15S486.243,284.833,477.959,284.833z"/>
	<path style="fill:#07485E;" d="M478,447.5H255.953v60H478c8.284,0,15-6.716,15-15v-30C493,454.216,486.284,447.5,478,447.5z"/>
</g>















</svg>
